<?xml version="1.0" encoding="UTF-8" standalone="no"?><!DOCTYPE svg PUBLIC "-//W3C//DTD SVG 1.1//EN" "http://www.w3.org/Graphics/SVG/1.1/DTD/svg11.dtd"><svg width="100%" height="100%" viewBox="0 0 375 117" version="1.1" xmlns="http://www.w3.org/2000/svg" xmlns:xlink="http://www.w3.org/1999/xlink" xml:space="preserve" xmlns:serif="http://www.serif.com/" style="fill-rule:evenodd;clip-rule:evenodd;stroke-linejoin:round;stroke-miterlimit:2;"><g id="Artboard1"><g><path d="M355.657,59.236c0,18.047 -14.629,32.675 -32.675,32.675c-18.045,0 -32.674,-14.628 -32.674,-32.675c0,-18.045 14.629,-32.675 32.674,-32.675c18.046,0 32.675,14.63 32.675,32.675" style="fill:#fcdd03;fill-rule:nonzero;"/></g><g><path d="M40.642,74.613l-2.745,7.411l5.43,0l-2.685,-7.411Zm5.797,15.832l-1.679,-4.24l-8.356,0l-1.587,4.24l-5.673,0l9.059,-21.597l5.063,0l8.968,21.597l-5.795,0Z" style="fill:#fff;fill-rule:nonzero;"/></g><g><path d="M54.035,90.445l-0,-21.597l5.247,-0l-0,17.051l8.358,-0l0,4.546l-13.605,-0Z" style="fill:#fff;fill-rule:nonzero;"/></g><g><path d="M99.852,90.445l-5.156,-0l-4.27,-14.613l-0.092,-0l-4.27,14.613l-5.185,-0l-6.133,-21.597l5.614,-0l3.416,14.367l0.091,-0l3.843,-14.367l5.431,-0l3.873,14.367l0.092,-0l3.478,-14.367l5.429,-0l-6.161,21.597Z" style="fill:#fff;fill-rule:nonzero;"/></g><g><path d="M116.721,74.613l-2.745,7.411l5.43,0l-2.685,-7.411Zm5.795,15.832l-1.677,-4.24l-8.358,0l-1.587,4.24l-5.673,0l9.06,-21.597l5.064,0l8.968,21.597l-5.797,0Z" style="fill:#fff;fill-rule:nonzero;"/></g><g><path d="M143.748,90.445l0,-9.03l-8.42,-0l0,9.03l-5.216,-0l0,-21.597l5.216,-0l0,8.175l8.42,-0l0,-8.175l5.217,-0l0,21.597l-5.217,-0Z" style="fill:#fff;fill-rule:nonzero;"/></g><g><path d="M162.264,74.613l-2.745,7.411l5.43,0l-2.685,-7.411Zm5.796,15.832l-1.678,-4.24l-8.358,0l-1.587,4.24l-5.673,0l9.06,-21.597l5.064,0l8.968,21.597l-5.796,0Z" style="fill:#fff;fill-rule:nonzero;"/></g><g><path d="M184.222,90.444l-1.407,0l0,-13.83l8.342,0l0,1.25l-6.935,0l0,4.785l6.447,0l0,1.25l-6.447,0l0,6.545Z" style="fill:#fff;fill-rule:nonzero;"/></g><g><path d="M205.984,83.539c0,-0.806 -0.13,-1.574 -0.39,-2.303c-0.26,-0.727 -0.638,-1.368 -1.133,-1.92c-0.497,-0.552 -1.098,-0.991 -1.808,-1.316c-0.71,-0.326 -1.507,-0.489 -2.392,-0.489c-0.887,0 -1.684,0.163 -2.394,0.489c-0.709,0.325 -1.312,0.764 -1.807,1.316c-0.495,0.552 -0.873,1.193 -1.133,1.92c-0.26,0.729 -0.39,1.497 -0.39,2.303c0,0.805 0.13,1.572 0.39,2.301c0.26,0.728 0.638,1.365 1.133,1.912c0.495,0.546 1.098,0.981 1.807,1.306c0.71,0.325 1.507,0.487 2.394,0.487c0.885,0 1.682,-0.162 2.392,-0.487c0.71,-0.325 1.311,-0.76 1.808,-1.306c0.495,-0.547 0.873,-1.184 1.133,-1.912c0.26,-0.729 0.39,-1.496 0.39,-2.301Zm1.485,-0.011c0,1.056 -0.183,2.025 -0.548,2.912c-0.364,0.885 -0.868,1.649 -1.513,2.294c-0.645,0.645 -1.406,1.151 -2.286,1.514c-0.879,0.365 -1.833,0.547 -2.861,0.547c-1.03,0 -1.983,-0.182 -2.862,-0.547c-0.879,-0.363 -1.641,-0.869 -2.286,-1.514c-0.645,-0.645 -1.149,-1.409 -1.514,-2.294c-0.365,-0.887 -0.547,-1.856 -0.547,-2.912c0,-1.055 0.182,-2.024 0.547,-2.91c0.365,-0.887 0.869,-1.651 1.514,-2.296c0.645,-0.645 1.407,-1.149 2.286,-1.513c0.879,-0.365 1.832,-0.548 2.862,-0.548c1.028,0 1.982,0.183 2.861,0.548c0.88,0.364 1.641,0.868 2.286,1.513c0.645,0.645 1.149,1.409 1.513,2.296c0.365,0.886 0.548,1.855 0.548,2.91" style="fill:#fff;fill-rule:nonzero;"/></g><g><path d="M211.806,82.767l2.442,0c1.133,0 2.005,-0.205 2.618,-0.615c0.61,-0.41 0.917,-1.026 0.917,-1.846c0,-0.457 -0.084,-0.842 -0.253,-1.154c-0.169,-0.311 -0.404,-0.565 -0.704,-0.761c-0.3,-0.195 -0.665,-0.339 -1.093,-0.43c-0.43,-0.091 -0.907,-0.137 -1.427,-0.137l-2.5,0l0,4.943Zm-0,7.677l-1.407,-0l-0,-13.83l4.064,-0c0.677,-0 1.304,0.065 1.884,0.195c0.58,0.13 1.082,0.341 1.505,0.634c0.423,0.293 0.752,0.674 0.986,1.144c0.235,0.469 0.352,1.041 0.352,1.719c-0,0.508 -0.092,0.97 -0.274,1.386c-0.181,0.417 -0.428,0.779 -0.743,1.085c-0.312,0.306 -0.682,0.55 -1.112,0.732c-0.43,0.183 -0.9,0.3 -1.407,0.352l4.044,6.583l-1.719,-0l-3.828,-6.466l-2.345,-0l-0,6.466Z" style="fill:#fff;fill-rule:nonzero;"/></g><g><path d="M238.628,88.198c-0.235,0.351 -0.518,0.684 -0.85,0.998c-0.332,0.313 -0.716,0.589 -1.152,0.826c-0.437,0.239 -0.92,0.426 -1.447,0.566c-0.526,0.139 -1.102,0.208 -1.727,0.208c-1.044,-0 -2.007,-0.182 -2.892,-0.547c-0.887,-0.365 -1.648,-0.869 -2.287,-1.514c-0.638,-0.644 -1.136,-1.409 -1.494,-2.294c-0.358,-0.887 -0.536,-1.857 -0.536,-2.912c-0,-1.055 0.182,-2.025 0.547,-2.91c0.363,-0.885 0.869,-1.651 1.514,-2.296c0.644,-0.645 1.405,-1.149 2.285,-1.514c0.879,-0.364 1.833,-0.547 2.863,-0.547c0.506,-0 1.005,0.053 1.494,0.158c0.487,0.106 0.947,0.256 1.377,0.447c0.43,0.193 0.82,0.422 1.172,0.692c0.352,0.269 0.645,0.573 0.879,0.91l-1.172,0.86c-0.144,-0.222 -0.336,-0.442 -0.576,-0.664c-0.242,-0.221 -0.526,-0.416 -0.851,-0.586c-0.325,-0.169 -0.679,-0.305 -1.064,-0.41c-0.384,-0.105 -0.798,-0.157 -1.241,-0.157c-0.898,-0 -1.702,0.163 -2.412,0.487c-0.71,0.325 -1.313,0.763 -1.807,1.314c-0.495,0.552 -0.873,1.192 -1.133,1.919c-0.26,0.727 -0.391,1.493 -0.391,2.297c-0,0.806 0.134,1.571 0.4,2.299c0.267,0.727 0.648,1.365 1.143,1.917c0.495,0.551 1.097,0.99 1.807,1.315c0.709,0.324 1.508,0.486 2.393,0.486c0.795,-0 1.55,-0.163 2.267,-0.488c0.715,-0.326 1.315,-0.847 1.797,-1.562l1.094,0.702Z" style="fill:#fff;fill-rule:nonzero;"/></g><g><path d="M242.749,85.521l6.095,0l-3.047,-7.345l-3.048,7.345Zm-2.031,4.923l-1.543,0l5.977,-13.832l1.367,0l5.94,13.832l-1.563,0l-1.524,-3.633l-7.15,0l-1.504,3.633Z" style="fill:#fff;fill-rule:nonzero;"/></g><g><path d="M255.897,82.767l2.442,0c1.133,0 2.005,-0.205 2.618,-0.615c0.611,-0.41 0.917,-1.026 0.917,-1.846c0,-0.457 -0.085,-0.842 -0.253,-1.154c-0.169,-0.311 -0.403,-0.565 -0.703,-0.761c-0.3,-0.195 -0.665,-0.339 -1.095,-0.43c-0.429,-0.091 -0.905,-0.137 -1.425,-0.137l-2.501,0l0,4.943Zm0,7.677l-1.406,-0l0,-13.83l4.063,-0c0.677,-0 1.306,0.065 1.885,0.195c0.579,0.13 1.081,0.341 1.504,0.634c0.422,0.293 0.753,0.674 0.986,1.144c0.235,0.469 0.352,1.041 0.352,1.719c0,0.508 -0.091,0.97 -0.273,1.386c-0.182,0.417 -0.43,0.779 -0.742,1.085c-0.313,0.306 -0.684,0.55 -1.115,0.732c-0.428,0.183 -0.898,0.3 -1.405,0.352l4.043,6.583l-1.718,-0l-3.83,-6.466l-2.344,-0l0,6.466Z" style="fill:#fff;fill-rule:nonzero;"/></g><g><path d="M272.893,78.841c-0.3,-0.417 -0.685,-0.752 -1.153,-1.006c-0.469,-0.254 -1.035,-0.381 -1.699,-0.381c-0.338,-0 -0.685,0.052 -1.036,0.155c-0.352,0.105 -0.672,0.264 -0.957,0.48c-0.287,0.214 -0.518,0.485 -0.694,0.81c-0.175,0.326 -0.263,0.71 -0.263,1.152c-0,0.444 0.084,0.808 0.254,1.095c0.167,0.286 0.392,0.53 0.671,0.732c0.279,0.202 0.597,0.369 0.954,0.498c0.358,0.131 0.731,0.26 1.12,0.391c0.481,0.156 0.965,0.325 1.452,0.507c0.487,0.183 0.925,0.421 1.315,0.714c0.39,0.294 0.707,0.664 0.954,1.114c0.247,0.448 0.37,1.019 0.37,1.709c-0,0.69 -0.131,1.286 -0.395,1.787c-0.263,0.502 -0.605,0.916 -1.024,1.241c-0.422,0.325 -0.902,0.567 -1.443,0.722c-0.54,0.157 -1.083,0.235 -1.63,0.235c-0.418,-0 -0.834,-0.042 -1.251,-0.127c-0.417,-0.084 -0.813,-0.211 -1.19,-0.381c-0.38,-0.169 -0.73,-0.384 -1.057,-0.644c-0.325,-0.26 -0.611,-0.561 -0.858,-0.9l1.21,-0.898c0.3,0.495 0.721,0.909 1.261,1.241c0.54,0.332 1.175,0.497 1.904,0.497c0.352,-0 0.71,-0.054 1.075,-0.165c0.364,-0.111 0.693,-0.28 0.986,-0.507c0.293,-0.229 0.533,-0.509 0.723,-0.84c0.189,-0.334 0.283,-0.721 0.283,-1.163c-0,-0.482 -0.094,-0.882 -0.283,-1.202c-0.19,-0.319 -0.439,-0.585 -0.752,-0.8c-0.313,-0.215 -0.67,-0.395 -1.075,-0.538c-0.404,-0.143 -0.827,-0.287 -1.269,-0.43c-0.456,-0.143 -0.906,-0.306 -1.348,-0.488c-0.443,-0.182 -0.84,-0.421 -1.192,-0.713c-0.352,-0.293 -0.635,-0.654 -0.849,-1.085c-0.215,-0.429 -0.323,-0.957 -0.323,-1.582c-0,-0.664 0.133,-1.237 0.401,-1.719c0.267,-0.482 0.615,-0.88 1.045,-1.191c0.429,-0.314 0.905,-0.541 1.426,-0.685c0.52,-0.142 1.035,-0.214 1.543,-0.214c0.939,-0 1.739,0.166 2.402,0.498c0.665,0.332 1.166,0.726 1.505,1.182l-1.113,0.899Z" style="fill:#fff;fill-rule:nonzero;"/></g><g><path d="M141.308,32.058c0.638,-0.52 1.418,-0.779 2.338,-0.779c0.919,0 1.697,0.259 2.337,0.779c0.639,0.519 0.959,1.158 0.959,1.919c0,0.759 -0.32,1.397 -0.959,1.917c-0.64,0.521 -1.418,0.779 -2.337,0.779c-0.92,0 -1.7,-0.258 -2.338,-0.779c-0.64,-0.52 -0.96,-1.158 -0.96,-1.917c0,-0.761 0.32,-1.4 0.96,-1.919Zm-0.66,15.407l-4.436,0l-2.579,6.594l7.015,0l0,-6.594Zm-7.134,-15.407c0.638,-0.52 1.418,-0.779 2.338,-0.779c0.918,0 1.697,0.259 2.338,0.779c0.64,0.519 0.96,1.158 0.96,1.919c0,0.759 -0.32,1.397 -0.96,1.917c-0.641,0.521 -1.42,0.779 -2.338,0.779c-0.92,0 -1.7,-0.258 -2.338,-0.779c-0.64,-0.52 -0.958,-1.158 -0.958,-1.917c0,-0.761 0.318,-1.4 0.958,-1.919Zm-1.26,28.595c-2.157,0 -3.695,-0.408 -4.615,-1.229c-0.92,-0.818 -1.379,-1.868 -1.379,-3.147c0,-0.96 0.24,-2.037 0.718,-3.237l3.299,-8.333c0.439,-1.118 1.148,-2.038 2.129,-2.757c0.978,-0.719 2.127,-1.08 3.446,-1.08l10.19,0c0.32,0 0.6,0.12 0.84,0.361c0.241,0.238 0.36,0.518 0.36,0.838l0,11.99l3.297,0l0,6.594l-18.285,0Z" style="fill:#fff;fill-rule:nonzero;"/></g><g><path d="M149.25,54.568c0.34,-0.338 0.77,-0.509 1.289,-0.509l11.989,0l0,6.595l-11.989,0c-0.519,0 -0.949,-0.17 -1.289,-0.509c-0.34,-0.34 -0.51,-0.77 -0.51,-1.29l0,-2.998c0,-0.519 0.17,-0.949 0.51,-1.289" style="fill:#fff;fill-rule:nonzero;"/></g><g><path d="M161.24,54.568c0.34,-0.338 0.77,-0.509 1.288,-0.509l11.99,0l0,6.595l-11.99,0c-0.518,0 -0.948,-0.17 -1.288,-0.509c-0.34,-0.34 -0.51,-0.77 -0.51,-1.29l0,-2.998c0,-0.519 0.17,-0.949 0.51,-1.289" style="fill:#fff;fill-rule:nonzero;"/></g><g><path d="M173.23,54.569c0.34,-0.34 0.77,-0.51 1.288,-0.51l13.909,0c-0.361,-0.84 -0.72,-1.758 -1.079,-2.758c-0.359,-0.999 -0.78,-1.938 -1.259,-2.817c-0.48,-0.88 -1.048,-1.619 -1.708,-2.219c-0.659,-0.598 -1.47,-0.899 -2.428,-0.899c-0.68,0 -1.339,0.12 -1.979,0.359c-0.64,0.24 -1.259,0.58 -1.858,1.019l-1.798,-4.675c1.077,-0.878 2.277,-1.599 3.596,-2.159c1.319,-0.559 2.618,-0.839 3.896,-0.839c1.84,0 3.318,0.521 4.437,1.56c1.12,1.039 2.079,2.318 2.878,3.836c0.799,1.518 1.529,3.148 2.187,4.885c0.66,1.74 1.429,3.308 2.309,4.707l2.877,0l0,6.594l-23.98,0c-0.518,0 -0.948,-0.17 -1.288,-0.509c-0.34,-0.34 -0.51,-0.769 -0.51,-1.289l0,-2.998c0,-0.52 0.17,-0.949 0.51,-1.288" style="fill:#fff;fill-rule:nonzero;"/></g><g><path d="M210.428,28.04c0.241,0.241 0.359,0.521 0.359,0.84l0,30.575c0,0.319 -0.118,0.599 -0.359,0.84c-0.24,0.238 -0.52,0.359 -0.84,0.359l-4.196,0c-0.32,0 -0.6,-0.121 -0.838,-0.359c-0.241,-0.241 -0.361,-0.521 -0.361,-0.84l0,-30.575c0,-0.319 0.12,-0.599 0.361,-0.84c0.238,-0.238 0.518,-0.359 0.838,-0.359l4.196,0c0.32,0 0.6,0.121 0.84,0.359" style="fill:#fff;fill-rule:nonzero;"/></g><g><path d="M230.571,47.944c-1.04,-0.319 -1.978,-0.48 -2.818,-0.48c-1.039,0 -1.928,0.3 -2.667,0.9c-0.739,0.6 -1.11,1.498 -1.11,2.698l0,2.997l6.595,0l0,-6.115Zm-11.45,10.971c-1.159,-1.16 -1.739,-2.578 -1.739,-4.256l0,-3.597c0,-1.759 0.29,-3.278 0.869,-4.556c0.579,-1.279 1.349,-2.34 2.308,-3.177c0.96,-0.84 2.069,-1.46 3.327,-1.859c1.26,-0.4 2.589,-0.6 3.987,-0.6c1.559,0 3.147,0.249 4.766,0.75c1.619,0.499 3.128,1.248 4.527,2.248l0,10.191l3.296,0l0,6.595l-3.296,0c0,1.798 -0.24,3.356 -0.719,4.675c-0.481,1.319 -1.14,2.408 -1.98,3.267c-0.839,0.86 -1.828,1.49 -2.966,1.888c-1.14,0.401 -2.369,0.6 -3.688,0.6c-1.399,0 -2.908,-0.209 -4.525,-0.629c-1.619,-0.42 -3.188,-1.028 -4.707,-1.828l1.739,-4.916c0.839,0.319 1.768,0.62 2.787,0.899c1.019,0.28 2.008,0.419 2.967,0.419c1.24,0 2.299,-0.309 3.177,-0.929c0.88,-0.618 1.32,-1.768 1.32,-3.446l-7.194,0c-1.679,0 -3.096,-0.579 -4.256,-1.739" style="fill:#fff;fill-rule:nonzero;"/></g><g><path d="M239.174,54.568c0.34,-0.338 0.769,-0.509 1.288,-0.509l11.99,0l0,6.595l-11.99,0c-0.519,0 -0.948,-0.17 -1.288,-0.509c-0.34,-0.34 -0.51,-0.77 -0.51,-1.29l0,-2.998c0,-0.519 0.17,-0.949 0.51,-1.289" style="fill:#fff;fill-rule:nonzero;"/></g><g><path d="M255.749,28.88c0,-0.32 0.12,-0.598 0.361,-0.839c0.239,-0.24 0.519,-0.359 0.838,-0.359l4.197,0c0.319,0 0.599,0.119 0.838,0.359c0.24,0.241 0.361,0.519 0.361,0.839l0,26.978c0,1.319 -0.47,2.448 -1.409,3.386c-0.94,0.94 -2.068,1.41 -3.387,1.41l-5.096,0c-0.519,0 -0.95,-0.17 -1.288,-0.51c-0.34,-0.34 -0.51,-0.768 -0.51,-1.288l0,-2.998c0,-0.52 0.17,-0.949 0.51,-1.289c0.338,-0.339 0.769,-0.509 1.288,-0.509l3.297,0l0,-25.18Z" style="fill:#fff;fill-rule:nonzero;"/></g><g><path d="M275.173,28.04c0.24,0.241 0.359,0.521 0.359,0.84l0,30.575c0,0.319 -0.119,0.599 -0.359,0.84c-0.24,0.238 -0.519,0.359 -0.839,0.359l-4.197,0c-0.319,0 -0.6,-0.121 -0.839,-0.359c-0.24,-0.241 -0.36,-0.521 -0.36,-0.84l0,-30.575c0,-0.319 0.12,-0.599 0.36,-0.84c0.239,-0.238 0.52,-0.359 0.839,-0.359l4.197,0c0.32,0 0.599,0.121 0.839,0.359" style="fill:#fff;fill-rule:nonzero;"/></g><g><path d="M39.451,42.814c0.894,0 1.341,0.484 1.341,1.454c0,0.961 -0.447,1.441 -1.341,1.441c-0.901,0 -1.352,-0.48 -1.352,-1.441c0,-0.97 0.451,-1.454 1.352,-1.454Zm-3.969,0c0.902,0 1.352,0.484 1.352,1.454c0,0.961 -0.45,1.441 -1.352,1.441c-0.894,0 -1.341,-0.48 -1.341,-1.441c0,-0.97 0.447,-1.454 1.341,-1.454Zm7.434,15.817l0,-10.532l2.2,0l0,12.555l-11.418,0c-1.474,0 -2.65,-0.451 -3.527,-1.353c-0.876,-0.901 -1.315,-2.123 -1.315,-3.667c0,-1.356 0.215,-2.655 0.645,-3.893l2.074,0c-0.262,1.272 -0.392,2.506 -0.392,3.703c0,0.928 0.221,1.691 0.662,2.29c0.444,0.598 1.036,0.897 1.777,0.897l9.294,0Z" style="fill:#fff;fill-rule:nonzero;"/></g><g><rect x="49.517" y="40.98" width="2.301" height="19.674" style="fill:#fff;"/></g><g><path d="M60.439,48.099l0,13.175c0,1.744 -0.4,3.113 -1.2,4.108c-0.801,0.996 -1.939,1.492 -3.415,1.492c-1.331,0 -2.503,-0.417 -3.514,-1.251l1.036,-1.581c0.725,0.54 1.534,0.81 2.429,0.81c0.758,0 1.363,-0.316 1.813,-0.949c0.451,-0.632 0.676,-1.467 0.676,-2.503l0,-13.301l2.175,0Z" style="fill:#fff;fill-rule:nonzero;"/></g><g><path d="M67.14,58.631l3.554,0l0,2.022l-5.854,0l0,-19.673l2.3,0l0,17.651Z" style="fill:#fff;fill-rule:nonzero;"/></g><g><path d="M76.648,61.628c0.895,0 1.34,0.484 1.34,1.453c0,0.962 -0.445,1.441 -1.34,1.441c-0.901,0 -1.352,-0.479 -1.352,-1.441c0,-0.969 0.451,-1.453 1.352,-1.453Zm-3.969,0c0.901,0 1.352,0.484 1.352,1.453c0,0.962 -0.451,1.441 -1.352,1.441c-0.893,0 -1.34,-0.479 -1.34,-1.441c0,-0.969 0.447,-1.453 1.34,-1.453Zm-2.504,-2.997l3.54,0l0,-10.533l2.301,0l0,8.054c0,0.759 0.234,1.362 0.702,1.809c0.468,0.447 1.09,0.67 1.865,0.67l0.936,0l0,2.024l-0.595,0c-1.441,0 -2.41,-0.494 -2.908,-1.48l0,1.48l-5.841,0l0,-2.024Z" style="fill:#fff;fill-rule:nonzero;"/></g><g><path d="M79,60.653l0,-2.022l3.831,0l0,-8.521l2.2,0l0,5.65c0,0.844 0.264,1.533 0.791,2.068c0.526,0.536 1.202,0.803 2.029,0.803l1.605,0l0,-8.521l2.2,0l0,5.65c0,0.844 0.264,1.533 0.791,2.068c0.527,0.536 1.203,0.803 2.029,0.803l1.606,0l0,-10.533l2.2,0l0,8.054c0,0.759 0.236,1.363 0.708,1.809c0.472,0.447 1.091,0.67 1.858,0.67l0.418,0l0,2.022l-0.077,0c-1.441,0 -2.41,-0.492 -2.907,-1.478l0,1.478l-3.731,0c-1.449,0 -2.415,-0.492 -2.895,-1.478l0,1.478l-3.729,0c-1.451,0 -2.415,-0.492 -2.896,-1.478l0,1.478l-6.031,0Z" style="fill:#fff;fill-rule:nonzero;"/></g><g><path d="M100.747,58.631l3.541,0l0,-17.651l2.3,0l0,15.172c0,0.759 0.235,1.363 0.703,1.809c0.466,0.447 1.088,0.67 1.865,0.67l0.934,0l0,2.022l-0.593,0c-1.441,0 -2.412,-0.492 -2.909,-1.478l0,1.478l-5.841,0l0,-2.022Z" style="fill:#fff;fill-rule:nonzero;"/></g><g><path d="M109.572,58.631l3.541,0l0,-17.651l2.3,0l0,19.673l-5.841,0l0,-2.022Z" style="fill:#fff;fill-rule:nonzero;"/></g></g></svg>