<svg xmlns:xlink="http://www.w3.org/1999/xlink" xmlns="http://www.w3.org/2000/svg" width="24" height="24" viewBox="0 0 24 24" fill="none"><script xmlns=""/>
<path d="M11.9999 21.9998C10.6331 21.9998 9.34182 21.7367 8.12597 21.2104C6.91011 20.6842 5.84828 19.9671 4.94047 19.0593C4.03267 18.1515 3.31564 17.0897 2.7894 15.8738C2.26313 14.658 2 13.3667 2 11.9999C2 10.6207 2.26313 9.32629 2.7894 8.11666C3.31564 6.90701 4.03267 5.84828 4.94047 4.94047C5.84828 4.03267 6.91011 3.31564 8.12597 2.7894C9.34182 2.26313 10.6331 2 11.9999 2C13.3791 2 14.6735 2.26313 15.8832 2.7894C17.0928 3.31564 18.1515 4.03267 19.0593 4.94047C19.9671 5.84828 20.6842 6.90701 21.2104 8.11666C21.7367 9.32629 21.9998 10.6207 21.9998 11.9999C21.9998 13.3667 21.7367 14.658 21.2104 15.8738C20.6842 17.0897 19.9671 18.1515 19.0593 19.0593C18.1515 19.9671 17.0928 20.6842 15.8832 21.2104C14.6735 21.7367 13.3791 21.9998 11.9999 21.9998ZM11.9882 19.727C12.3973 19.1468 12.757 18.5391 13.0673 17.904C13.3777 17.2689 13.6309 16.5959 13.8269 15.885H10.1671C10.3631 16.5959 10.6133 17.2689 10.9178 17.904C11.2223 18.5391 11.5791 19.1468 11.9882 19.727ZM9.4693 19.335C9.16747 18.8038 8.9102 18.2482 8.69749 17.6683C8.4848 17.0885 8.30495 16.494 8.15794 15.885H5.30188C5.76386 16.6939 6.3472 17.3986 7.05188 17.9991C7.75659 18.5996 8.56239 19.0449 9.4693 19.335ZM14.5129 19.335C15.4198 19.0449 16.2276 18.5996 16.9362 17.9991C17.6448 17.3986 18.2301 16.6939 18.6921 15.885H15.836C15.689 16.494 15.5072 17.0885 15.2906 17.6683C15.074 18.2482 14.8148 18.8038 14.5129 19.335ZM4.4747 13.9425H7.76591C7.71691 13.6158 7.68016 13.2951 7.65566 12.9805C7.63116 12.6659 7.6189 12.339 7.6189 11.9999C7.6189 11.6569 7.63116 11.329 7.65566 11.0164C7.68016 10.7037 7.71691 10.384 7.76591 10.0573H4.4747C4.39302 10.3801 4.33177 10.6988 4.29093 11.0134C4.2501 11.3281 4.22968 11.6569 4.22968 11.9999C4.22968 12.339 4.2501 12.6669 4.29093 12.9834C4.33177 13.3 4.39302 13.6197 4.4747 13.9425ZM9.72605 13.9425H14.2679C14.3169 13.6158 14.3517 13.2951 14.3723 12.9805C14.3929 12.6659 14.4032 12.339 14.4032 11.9999C14.4032 11.6569 14.3929 11.329 14.3723 11.0164C14.3517 10.7037 14.3169 10.384 14.2679 10.0573H9.72605C9.67705 10.384 9.6403 10.7037 9.61579 11.0164C9.59129 11.329 9.57904 11.6569 9.57904 11.9999C9.57904 12.339 9.59129 12.6659 9.61579 12.9805C9.6403 13.2951 9.67705 13.6158 9.72605 13.9425ZM16.228 13.9425H19.5134C19.5951 13.6197 19.6563 13.3 19.6972 12.9834C19.738 12.6669 19.7584 12.339 19.7584 11.9999C19.7584 11.6569 19.738 11.3281 19.6972 11.0134C19.6563 10.6988 19.5951 10.3801 19.5134 10.0573H16.228C16.2731 10.384 16.307 10.7037 16.3295 11.0164C16.3521 11.329 16.3633 11.6569 16.3633 11.9999C16.3633 12.339 16.3521 12.6659 16.3295 12.9805C16.307 13.2951 16.2731 13.6158 16.228 13.9425ZM15.836 8.10894H18.6921C18.2301 7.30002 17.6448 6.59631 16.9362 5.9978C16.2276 5.39927 15.4198 4.95495 14.5129 4.66483C14.8148 5.19606 15.074 5.75064 15.2906 6.32857C15.5072 6.90648 15.689 7.49994 15.836 8.10894ZM10.1671 8.10894H13.8269C13.6348 7.39803 13.3835 6.726 13.0732 6.09286C12.7628 5.45972 12.4012 4.85304 11.9882 4.2728C11.5791 4.85304 11.2223 5.45972 10.9178 6.09286C10.6133 6.726 10.3631 7.39803 10.1671 8.10894ZM5.30188 8.10894H8.15794C8.30495 7.49994 8.4848 6.90648 8.69749 6.32857C8.9102 5.75064 9.16747 5.19606 9.4693 4.66483C8.56239 4.95495 7.75659 5.39927 7.05188 5.9978C6.3472 6.59631 5.76386 7.30002 5.30188 8.10894Z" fill="#ffffff"/>
<script xmlns=""/><script xmlns=""/></svg>