<?xml version="1.0" encoding="UTF-8" standalone="no"?><!DOCTYPE svg PUBLIC "-//W3C//DTD SVG 1.1//EN" "http://www.w3.org/Graphics/SVG/1.1/DTD/svg11.dtd"><svg width="100%" height="100%" viewBox="0 0 110 38" version="1.1" xmlns="http://www.w3.org/2000/svg" xmlns:xlink="http://www.w3.org/1999/xlink" xml:space="preserve" xmlns:serif="http://www.serif.com/" style="fill-rule:evenodd;clip-rule:evenodd;stroke-linejoin:round;stroke-miterlimit:2;"><g id="UI"><g><clipPath id="_clip1"><rect x="2" y="3.931" width="105.359" height="29.956"/></clipPath><g clip-path="url(#_clip1)"><g id="Layer_x0020_1"><path d="M60.053,15.493l6.892,5.567l-0,2.692l2.223,0l-0,-2.692c-0,0 1.651,-1.325 3.344,-2.671l0.204,-0.163c1.672,-1.346 3.324,-2.692 3.324,-2.692c0.02,-0.02 -0,-0.061 -0.061,-0.061l-2.917,0c-0.367,0 -0.672,0.122 -0.978,0.387c-0.204,0.163 -1.285,1.061 -3.304,2.651c-0.387,0.367 -1.04,0.347 -1.427,0c-1.999,-1.611 -3.12,-2.467 -3.344,-2.651c-0.327,-0.244 -0.612,-0.387 -0.979,-0.387l-2.977,0c-0,0 -0.021,0.02 -0,0.02Zm-14.397,-0.02l11.134,-0c1.346,-0 2.406,1.101 2.406,2.447l0,3.426c-0.02,1.345 -1.121,2.426 -2.447,2.426l-11.154,0c-1.326,-0.02 -2.407,-1.101 -2.407,-2.447l0,-3.426c0.021,-1.345 1.122,-2.426 2.468,-2.426Zm10.135,2.202l-9.177,-0c-0.591,0.02 -1.06,0.51 -1.06,1.101l0,1.693c0,0.591 0.469,1.06 1.06,1.06l9.197,-0c0.591,-0 1.06,-0.469 1.06,-1.06l0,-1.693c0,-0.591 -0.469,-1.101 -1.101,-1.101l0.021,-0Zm-15.865,-2.202c-0.286,-0 -0.551,0.122 -0.775,0.306l-3.671,4.608c-0.611,0.612 -1.427,0.612 -2.018,-0l-3.814,-4.608c-0.224,-0.204 -0.469,-0.306 -0.775,-0.306l-2.406,-0c-0.061,-0 -0.061,0.02 -0.02,0.061l6.301,7.423c1.04,1.101 2.406,1.101 3.446,-0l6.199,-7.423c0.021,-0.02 0.021,-0.061 -0.02,-0.061l-2.447,-0Zm40.314,0.815l-6.219,7.403c-0.02,0.02 0,0.081 0.02,0.081l2.447,-0c0.286,-0 0.551,-0.122 0.755,-0.306l3.691,-4.608c0.611,-0.653 1.427,-0.653 2.019,-0l3.813,4.588c0.204,0.224 0.469,0.347 0.795,0.347l2.406,-0c0.021,-0 0.061,-0.062 0.021,-0.082l-6.301,-7.402c-0.531,-0.571 -1.122,-0.816 -1.734,-0.816c-0.591,-0 -1.203,0.245 -1.713,0.816l0,-0.021Zm24.695,-0.815c-0.02,-0 -0.061,-0 -0.061,0.02l0,2.386c0,0.245 -0.204,0.449 -0.428,0.449l-9.727,-0c-0.225,-0 -0.429,-0.204 -0.429,-0.449l0,-2.427l-2.508,-0l0,8.259c0,0.02 0,0.02 0.021,0.02l2.467,-0c0,-0 0.02,-0 0.02,-0.02l0,-2.447c0,-0.245 0.204,-0.449 0.429,-0.449l9.727,-0c0.224,-0 0.428,0.204 0.428,0.449l0,2.447c0,-0 0.02,0.02 0.061,0.02l2.365,-0l0,-8.299l-2.365,-0l0,0.041Zm-93.619,-2.304l0.571,19.718l0.041,0.164l0.489,0.836l0.123,-0l0.489,-0.836l0.041,-0.164l0.571,-19.718c0,-0.204 -0.082,-0.388 -0.225,-0.51l-0.836,-0.734l-0.163,-0l-0.836,0.734c-0.143,0.122 -0.224,0.326 -0.224,0.51l-0.041,-0Zm3.446,0.897l-0.448,15.477l0.122,0.041l0.897,-1.57c0.102,-0.184 0.184,-0.388 0.204,-0.592l1.285,-9.441c0.183,-1.366 0.816,-2.651 1.774,-3.65l2.957,-3.079c0.877,-0.918 1.366,-2.121 1.366,-3.406l0,-3.895l-0.122,-0.04l-7.219,8.034c-0.51,0.571 -0.816,1.325 -0.836,2.08l0.02,0.041Zm-12.745,-10.074l0,3.895c0,1.264 0.49,2.488 1.367,3.405l2.956,3.08c0.959,0.999 1.571,2.284 1.775,3.65l1.284,9.441c0.021,0.204 0.102,0.408 0.204,0.592l0.897,1.57l0.123,-0.041l-0.449,-15.477c-0.02,-0.775 -0.326,-1.509 -0.836,-2.08l-7.219,-8.035l-0.122,0.041l0.02,-0.041Zm57.995,11.522l6.892,5.567l-0,2.712l2.223,-0l-0,-2.712c-0,-0 1.652,-1.326 3.344,-2.672l0.204,-0.163c1.693,-1.346 3.344,-2.712 3.344,-2.712c0.021,-0.02 -0,-0.061 -0.061,-0.061l-2.916,-0c-0.367,-0 -0.673,0.122 -0.979,0.387c-0.204,0.163 -1.284,1.061 -3.324,2.651c-0.387,0.367 -1.04,0.347 -1.427,-0c-1.998,-1.611 -3.12,-2.488 -3.344,-2.651c-0.327,-0.244 -0.612,-0.387 -0.979,-0.387l-2.977,-0c-0,-0 -0.021,0.02 -0,0.02l-0,0.021Zm-14.417,-0.021l11.154,-0c1.346,-0 2.406,1.101 2.406,2.447l0,3.426c-0.02,1.346 -1.121,2.427 -2.447,2.427l-11.174,-0c-1.326,-0.021 -2.407,-1.102 -2.407,-2.447l0,-3.426c0.021,-1.346 1.122,-2.427 2.468,-2.427Zm10.155,2.202l-9.197,-0c-0.591,0.021 -1.06,0.51 -1.06,1.102l0,1.692c0,0.592 0.469,1.061 1.06,1.061l9.217,-0c0.592,-0 1.061,-0.469 1.061,-1.061l0,-1.692c0,-0.592 -0.469,-1.102 -1.102,-1.102l0.021,-0Zm-15.885,-2.202c-0.286,-0 -0.571,0.123 -0.796,0.306l-3.67,4.609c-0.612,0.611 -1.428,0.611 -2.019,-0l-3.813,-4.609c-0.225,-0.204 -0.469,-0.306 -0.796,-0.306l-2.406,-0c-0.061,-0 -0.061,0.021 -0.02,0.061l6.321,7.443c1.04,1.102 2.407,1.102 3.447,-0l6.199,-7.443c0.02,-0.02 0.02,-0.061 -0.021,-0.061l-2.426,-0Zm40.375,0.816l-6.219,7.402c-0.02,0.02 0,0.082 0.02,0.082l2.447,-0c0.286,-0 0.571,-0.123 0.755,-0.306l3.711,-4.609c0.612,-0.652 1.428,-0.652 2.019,-0l3.813,4.588c0.204,0.225 0.469,0.347 0.795,0.347l2.407,-0c0.02,-0 0.061,-0.061 0.02,-0.082l-6.321,-7.402c-0.531,-0.571 -1.122,-0.815 -1.734,-0.815c-0.591,-0 -1.203,0.244 -1.713,0.815l0,-0.02Zm24.715,-0.816c-0.02,-0 -0.061,-0 -0.061,0.021l0,2.385c0,0.245 -0.204,0.449 -0.428,0.449l-9.747,-0c-0.225,-0 -0.429,-0.204 -0.429,-0.449l0,-2.426l-2.508,-0l0,8.279c0,0.02 0,0.02 0.021,0.02l2.467,-0c0,-0 0.02,-0 0.02,-0.02l0,-2.447c0,-0.245 0.204,-0.449 0.429,-0.449l9.747,-0c0.224,-0 0.428,0.204 0.428,0.449l0,2.447c0,-0 0.021,0.02 0.061,0.02l2.366,-0l0,-8.299l-2.366,-0l0,0.02Z" style="fill:#fff;fill-rule:nonzero;"/></g></g></g></g></svg>